<?xml version="1.0" encoding="utf-8"?>
<!-- Generator: Adobe Illustrator 24.0.1, SVG Export Plug-In . SVG Version: 6.00 Build 0)  -->
<svg version="1.0" id="Layer_1" xmlns="http://www.w3.org/2000/svg" xmlns:xlink="http://www.w3.org/1999/xlink" x="0px" y="0px"
	 viewBox="0 0 40 49" style="enable-background:new 0 0 40 49;" xml:space="preserve">
<style type="text/css">
	.st0{fill:#FFFFFF;}
</style>
<g>
	<path class="st0" d="M25.5,19.52c-1.19-1.19-2.84-1.92-4.65-1.92s-3.45,0.73-4.64,1.92s-1.92,2.83-1.92,4.65
		c0,3.62,2.94,6.56,6.56,6.56c1.81,0,3.46-0.74,4.65-1.92c1.18-1.19,1.92-2.83,1.92-4.64C27.42,22.35,26.68,20.71,25.5,19.52z
		 M23.87,27.19c-0.79,0.79-1.88,1.28-3.09,1.28c-2.41,0-4.37-1.96-4.37-4.37c0-1.21,0.49-2.3,1.28-3.09s1.89-1.28,3.09-1.28
		c1.21,0,2.3,0.49,3.09,1.28s1.28,1.88,1.28,3.09C25.15,25.31,24.66,26.4,23.87,27.19z"/>
	<path class="st0" d="M28.42,16.93c0,0.81-0.66,1.47-1.47,1.47s-1.47-0.66-1.47-1.47s0.66-1.47,1.47-1.47S28.42,16.12,28.42,16.93z"
		/>
	<path class="st0" d="M27.48,12.24H14.23c-2.98,0-5.4,2.41-5.4,5.39v13.12c0,2.98,2.42,5.39,5.4,5.39h13.25
		c2.98,0,5.4-2.41,5.4-5.39V17.63C32.88,14.65,30.46,12.24,27.48,12.24z M30.92,30.66c0,1.95-1.58,3.52-3.52,3.52H14.33
		c-1.94,0-3.52-1.57-3.52-3.52V17.72c0-1.95,1.58-3.52,3.52-3.52H27.4c1.94,0,3.52,1.57,3.52,3.52V30.66z"/>
	<path class="st0" d="M25.5,19.52c-1.19-1.19-2.84-1.92-4.65-1.92s-3.45,0.73-4.64,1.92s-1.92,2.83-1.92,4.65
		c0,3.62,2.94,6.56,6.56,6.56c1.81,0,3.46-0.74,4.65-1.92c1.18-1.19,1.92-2.83,1.92-4.64C27.42,22.35,26.68,20.71,25.5,19.52z
		 M23.87,27.19c-0.79,0.79-1.88,1.28-3.09,1.28c-2.41,0-4.37-1.96-4.37-4.37c0-1.21,0.49-2.3,1.28-3.09s1.89-1.28,3.09-1.28
		c1.21,0,2.3,0.49,3.09,1.28s1.28,1.88,1.28,3.09C25.15,25.31,24.66,26.4,23.87,27.19z"/>
	<path class="st0" d="M28.42,16.93c0,0.81-0.66,1.47-1.47,1.47s-1.47-0.66-1.47-1.47s0.66-1.47,1.47-1.47S28.42,16.12,28.42,16.93z"
		/>
	<path class="st0" d="M25.5,19.52c-1.19-1.19-2.84-1.92-4.65-1.92s-3.45,0.73-4.64,1.92s-1.92,2.83-1.92,4.65
		c0,3.62,2.94,6.56,6.56,6.56c1.81,0,3.46-0.74,4.65-1.92c1.18-1.19,1.92-2.83,1.92-4.64C27.42,22.35,26.68,20.71,25.5,19.52z
		 M23.87,27.19c-0.79,0.79-1.88,1.28-3.09,1.28c-2.41,0-4.37-1.96-4.37-4.37c0-1.21,0.49-2.3,1.28-3.09s1.89-1.28,3.09-1.28
		c1.21,0,2.3,0.49,3.09,1.28s1.28,1.88,1.28,3.09C25.15,25.31,24.66,26.4,23.87,27.19z"/>
	<path class="st0" d="M28.42,16.93c0,0.81-0.66,1.47-1.47,1.47s-1.47-0.66-1.47-1.47s0.66-1.47,1.47-1.47S28.42,16.12,28.42,16.93z"
		/>
</g>
</svg>
