<?xml version="1.0" encoding="utf-8"?>
<!-- Generator: Adobe Illustrator 24.0.1, SVG Export Plug-In . SVG Version: 6.00 Build 0)  -->
<svg version="1.0" id="Layer_1" xmlns="http://www.w3.org/2000/svg" xmlns:xlink="http://www.w3.org/1999/xlink" x="0px" y="0px"
	 viewBox="0 0 40 49" style="enable-background:new 0 0 40 49;" xml:space="preserve">
<style type="text/css">
	.st0{fill:#FFFFFF;}
</style>
<g>
	<path class="st0" d="M10.97,13.32c0-1.25,1.04-2.29,2.29-2.29c1.25,0,2.29,1.04,2.29,2.29s-1.04,2.29-2.29,2.29
		C12.01,15.61,10.97,14.57,10.97,13.32z M11.35,16.73h3.81v12.71h-3.81V16.73z"/>
	<path class="st0" d="M30.16,21.63v7.8h-3.81v-7.25c0-1.58-0.99-2.31-2.21-2.31c-1.4,0-2.36,0.81-2.36,2.62v6.94h-3.81V16.73h3.81
		v1.19c0.69-0.94,1.96-1.55,3.64-1.55C27.98,16.37,30.16,18.2,30.16,21.63z"/>
</g>
</svg>
